<svg width="15" height="15" viewBox="0 0 15 15" fill="none" xmlns="http://www.w3.org/2000/svg">
<path d="M6.2959 1.08503C5.84354 0.938724 5.35385 0.958345 4.91465 1.14038C4.47545 1.32241 4.11546 1.65495 3.89923 2.07837L3.3619 3.12903C3.29804 3.25412 3.19632 3.35585 3.07123 3.4197L2.0199 3.95703C1.59648 4.17326 1.26394 4.53325 1.08191 4.97245C0.899876 5.41166 0.880255 5.90134 1.02656 6.3537L1.39056 7.47703C1.43378 7.61051 1.43378 7.75422 1.39056 7.8877L1.02723 9.01103C0.880922 9.46339 0.900543 9.95308 1.08258 10.3923C1.26461 10.8315 1.59715 11.1915 2.02056 11.4077L3.07123 11.945C3.19632 12.0089 3.29804 12.1106 3.3619 12.2357L3.89923 13.287C4.11546 13.7104 4.47545 14.043 4.91465 14.225C5.35385 14.4071 5.84354 14.4267 6.2959 14.2804L7.41923 13.9164C7.55271 13.8732 7.69642 13.8732 7.8299 13.9164L8.95323 14.2797C9.40551 14.4261 9.89514 14.4065 10.3343 14.2246C10.7735 14.0427 11.1336 13.7103 11.3499 13.287L11.8872 12.2357C11.9511 12.1106 12.0528 12.0089 12.1779 11.945L13.2292 11.4084C13.6528 11.1921 13.9854 10.832 14.1675 10.3927C14.3495 9.95332 14.3691 9.46348 14.2226 9.01103L13.8586 7.8877C13.8154 7.75422 13.8154 7.61051 13.8586 7.47703L14.2219 6.3537C14.3683 5.90142 14.3487 5.41179 14.1668 4.9726C13.9849 4.53341 13.6525 4.17337 13.2292 3.95703L12.1779 3.4197C12.0528 3.35585 11.9511 3.25412 11.8872 3.12903L11.3506 2.0777C11.1343 1.65414 10.7742 1.3215 10.3349 1.13945C9.89552 0.957408 9.40568 0.937878 8.95323 1.08437L7.8299 1.44837C7.69642 1.49158 7.55271 1.49158 7.41923 1.44837L6.2959 1.08503ZM4.13123 7.52037L5.0739 6.5777L6.95923 8.4637L10.7306 4.69237L11.6739 5.63503L6.95923 10.3484L4.13123 7.52037Z" fill="#1D9BF0"/>
</svg>
