<svg width="25" height="25" viewBox="0 0 25 25" fill="none" xmlns="http://www.w3.org/2000/svg">
<path fill-rule="evenodd" clip-rule="evenodd" d="M14.4395 4.47431C15.5126 3.39955 17.2532 3.3989 18.3271 4.47284L20.819 6.96469C21.8838 8.02947 21.8948 9.75323 20.8438 10.8316L11.6106 20.3049C10.9051 21.0287 9.93745 21.4369 8.92702 21.4369L6.17487 21.4368C4.89562 21.4367 3.87401 20.3703 3.92781 19.0912L4.04597 16.2822C4.08546 15.3432 4.47574 14.4532 5.13958 13.7883L14.4395 4.47431ZM17.2673 5.5343C16.7791 5.04615 15.988 5.04644 15.5002 5.53497L13.8371 7.20057L18.1169 11.4804L19.7704 9.78384C20.2481 9.29367 20.2431 8.51015 19.7591 8.02615L17.2673 5.5343ZM6.20024 14.849L12.7772 8.26204L17.0698 12.5546L10.5373 19.2571C10.1139 19.6914 9.53334 19.9363 8.92708 19.9363L6.17494 19.9362C5.74852 19.9362 5.40798 19.5807 5.42592 19.1543L5.54407 16.3453C5.56777 15.7819 5.80194 15.2479 6.20024 14.849ZM21.4406 21.3636C21.8547 21.3636 22.1903 21.0277 22.1903 20.6133C22.1903 20.1989 21.8547 19.863 21.4406 19.863H15.3189C14.9048 19.863 14.5692 20.1989 14.5692 20.6133C14.5692 21.0277 14.9048 21.3636 15.3189 21.3636H21.4406Z" fill="#DDB762"/>
</svg>
