<svg width="43" height="41" viewBox="0 0 43 41" fill="none" xmlns="http://www.w3.org/2000/svg">
<rect x="0.609375" y="0.0800781" width="42" height="40" rx="8" fill="#E2A03F"/>
<path d="M24.3294 12.7601V14.2001H19.6694L19.4294 18.6201C20.0427 18.5267 20.5294 18.4801 20.8894 18.4801C22.3694 18.4801 23.5094 18.9334 24.3094 19.8401C25.0027 20.6267 25.3494 21.6734 25.3494 22.9801C25.3494 24.4467 24.836 25.5534 23.8094 26.3001C22.996 26.9001 21.9294 27.2001 20.6094 27.2001C19.8094 27.2001 19.0094 27.0801 18.2094 26.8401L17.5694 26.0601V25.4401C18.4894 25.6267 19.296 25.7201 19.9894 25.7201C21.2294 25.7201 22.136 25.5201 22.7094 25.1201C23.3494 24.6801 23.6694 23.9534 23.6694 22.9401C23.6694 20.9134 22.476 19.9001 20.0894 19.9001C19.5294 19.9001 18.716 19.9601 17.6494 20.0801L18.0494 12.7601H24.3294Z" fill="white"/>
</svg>
