<svg width="121" height="24" viewBox="0 0 121 24" fill="none" xmlns="http://www.w3.org/2000/svg">
<path d="M10.7258 6.62756C11.5124 4.66656 11.9057 3.68607 12.582 3.68607C13.2583 3.68607 13.6516 4.66657 14.4382 6.62757L14.4749 6.71888C14.9193 7.82675 15.1415 8.38068 15.5943 8.71737C16.0472 9.05406 16.6416 9.1073 17.8305 9.21377L18.0455 9.23302C19.9913 9.40729 20.9642 9.49442 21.1724 10.1134C21.3805 10.7324 20.658 11.3897 19.213 12.7044L18.7307 13.1432C17.9992 13.8087 17.6334 14.1415 17.463 14.5776C17.4312 14.659 17.4047 14.7423 17.3838 14.8271C17.2718 15.2818 17.3789 15.7645 17.5931 16.73L17.6598 17.0305C18.0534 18.8048 18.2503 19.692 17.9066 20.0747C17.7782 20.2177 17.6113 20.3206 17.4258 20.3712C16.9296 20.5066 16.2252 19.9326 14.8162 18.7845C13.891 18.0306 13.4284 17.6536 12.8973 17.5688C12.6884 17.5355 12.4756 17.5355 12.2667 17.5688C11.7356 17.6536 11.273 18.0306 10.3478 18.7845C8.93885 19.9326 8.23437 20.5066 7.73817 20.3712C7.55275 20.3206 7.38584 20.2177 7.25742 20.0747C6.91374 19.692 7.11057 18.8048 7.50425 17.0305L7.57092 16.73C7.78513 15.7645 7.89224 15.2818 7.78018 14.8271C7.75928 14.7423 7.73284 14.659 7.70104 14.5776C7.53057 14.1415 7.16482 13.8087 6.43331 13.1432L5.95103 12.7044C4.50599 11.3897 3.78346 10.7324 3.99164 10.1134C4.19982 9.49442 5.17273 9.40729 7.11854 9.23302L7.33348 9.21377C8.52239 9.1073 9.11685 9.05406 9.5697 8.71737C10.0226 8.38068 10.2447 7.82675 10.6891 6.71888L10.7258 6.62756Z" fill="#E2A03F" stroke="#E2A03F"/>
<path d="M34.7259 6.62756C35.5125 4.66656 35.9058 3.68607 36.5821 3.68607C37.2585 3.68607 37.6518 4.66657 38.4384 6.62757L38.475 6.71888C38.9194 7.82675 39.1416 8.38068 39.5944 8.71737C40.0473 9.05406 40.6417 9.1073 41.8306 9.21377L42.0456 9.23302C43.9914 9.40729 44.9643 9.49442 45.1725 10.1134C45.3807 10.7324 44.6581 11.3897 43.2131 12.7044L42.7308 13.1432C41.9993 13.8087 41.6336 14.1415 41.4631 14.5776C41.4313 14.659 41.4048 14.7423 41.3839 14.8271C41.2719 15.2818 41.379 15.7645 41.5932 16.73L41.6599 17.0305C42.0536 18.8048 42.2504 19.692 41.9067 20.0747C41.7783 20.2177 41.6114 20.3206 41.426 20.3712C40.9298 20.5066 40.2253 19.9326 38.8163 18.7845C37.8912 18.0306 37.4286 17.6536 36.8975 17.5688C36.6886 17.5355 36.4757 17.5355 36.2668 17.5688C35.7357 17.6536 35.2731 18.0306 34.3479 18.7845C32.939 19.9326 32.2345 20.5066 31.7383 20.3712C31.5529 20.3206 31.386 20.2177 31.2575 20.0747C30.9139 19.692 31.1107 18.8048 31.5044 17.0305L31.571 16.73C31.7853 15.7645 31.8924 15.2818 31.7803 14.8271C31.7594 14.7423 31.733 14.659 31.7012 14.5776C31.5307 14.1415 31.1649 13.8087 30.4334 13.1432L29.9512 12.7044C28.5061 11.3897 27.7836 10.7324 27.9918 10.1134C28.1999 9.49442 29.1728 9.40729 31.1187 9.23302L31.3336 9.21377C32.5225 9.1073 33.117 9.05406 33.5698 8.71737C34.0227 8.38068 34.2449 7.82675 34.6893 6.71888L34.7259 6.62756Z" fill="#E2A03F" stroke="#E2A03F"/>
<path d="M58.7259 6.62756C59.5125 4.66656 59.9058 3.68607 60.5821 3.68607C61.2585 3.68607 61.6518 4.66657 62.4384 6.62757L62.475 6.71888C62.9194 7.82675 63.1416 8.38068 63.5944 8.71737C64.0473 9.05406 64.6417 9.1073 65.8306 9.21377L66.0456 9.23302C67.9914 9.40729 68.9643 9.49442 69.1725 10.1134C69.3807 10.7324 68.6581 11.3897 67.2131 12.7044L66.7308 13.1432C65.9993 13.8087 65.6336 14.1415 65.4631 14.5776C65.4313 14.659 65.4048 14.7423 65.3839 14.8271C65.2719 15.2818 65.379 15.7645 65.5932 16.73L65.6599 17.0305C66.0536 18.8048 66.2504 19.692 65.9067 20.0747C65.7783 20.2177 65.6114 20.3206 65.426 20.3712C64.9298 20.5066 64.2253 19.9326 62.8163 18.7845C61.8912 18.0306 61.4286 17.6536 60.8975 17.5688C60.6886 17.5355 60.4757 17.5355 60.2668 17.5688C59.7357 17.6536 59.2731 18.0306 58.3479 18.7845C56.939 19.9326 56.2345 20.5066 55.7383 20.3712C55.5529 20.3206 55.386 20.2177 55.2575 20.0747C54.9139 19.692 55.1107 18.8048 55.5044 17.0305L55.571 16.73C55.7853 15.7645 55.8924 15.2818 55.7803 14.8271C55.7594 14.7423 55.733 14.659 55.7012 14.5776C55.5307 14.1415 55.1649 13.8087 54.4334 13.1432L53.9512 12.7044C52.5061 11.3897 51.7836 10.7324 51.9918 10.1134C52.1999 9.49442 53.1728 9.40729 55.1187 9.23302L55.3336 9.21377C56.5225 9.1073 57.117 9.05406 57.5698 8.71737C58.0227 8.38068 58.2449 7.82675 58.6893 6.71888L58.7259 6.62756Z" fill="#E2A03F" stroke="#E2A03F"/>
<path d="M82.7259 6.62756C83.5125 4.66656 83.9058 3.68607 84.5821 3.68607C85.2585 3.68607 85.6518 4.66657 86.4384 6.62757L86.475 6.71888C86.9194 7.82675 87.1416 8.38068 87.5944 8.71737C88.0473 9.05406 88.6417 9.1073 89.8306 9.21377L90.0456 9.23302C91.9914 9.40729 92.9643 9.49442 93.1725 10.1134C93.3807 10.7324 92.6581 11.3897 91.2131 12.7044L90.7308 13.1432C89.9993 13.8087 89.6336 14.1415 89.4631 14.5776C89.4313 14.659 89.4048 14.7423 89.3839 14.8271C89.2719 15.2818 89.379 15.7645 89.5932 16.73L89.6599 17.0305C90.0536 18.8048 90.2504 19.692 89.9067 20.0747C89.7783 20.2177 89.6114 20.3206 89.426 20.3712C88.9298 20.5066 88.2253 19.9326 86.8163 18.7845C85.8912 18.0306 85.4286 17.6536 84.8975 17.5688C84.6886 17.5355 84.4757 17.5355 84.2668 17.5688C83.7357 17.6536 83.2731 18.0306 82.3479 18.7845C80.939 19.9326 80.2345 20.5066 79.7383 20.3712C79.5529 20.3206 79.386 20.2177 79.2575 20.0747C78.9139 19.692 79.1107 18.8048 79.5044 17.0305L79.571 16.73C79.7853 15.7645 79.8924 15.2818 79.7803 14.8271C79.7594 14.7423 79.733 14.659 79.7012 14.5776C79.5307 14.1415 79.1649 13.8087 78.4334 13.1432L77.9512 12.7044C76.5061 11.3897 75.7836 10.7324 75.9918 10.1134C76.1999 9.49442 77.1728 9.40729 79.1187 9.23302L79.3336 9.21377C80.5225 9.1073 81.117 9.05406 81.5698 8.71737C82.0227 8.38068 82.2449 7.82675 82.6893 6.71888L82.7259 6.62756Z" fill="#E2A03F" stroke="#E2A03F"/>
<path d="M106.726 6.62756C107.512 4.66656 107.906 3.68607 108.582 3.68607C109.258 3.68607 109.652 4.66657 110.438 6.62757L110.475 6.71888C110.919 7.82675 111.142 8.38068 111.594 8.71737C112.047 9.05406 112.642 9.1073 113.831 9.21377L114.046 9.23302C115.991 9.40729 116.964 9.49442 117.172 10.1134C117.381 10.7324 116.658 11.3897 115.213 12.7044L114.731 13.1432C113.999 13.8087 113.634 14.1415 113.463 14.5776C113.431 14.659 113.405 14.7423 113.384 14.8271C113.272 15.2818 113.379 15.7645 113.593 16.73L113.66 17.0305C114.054 18.8048 114.25 19.692 113.907 20.0747C113.778 20.2177 113.611 20.3206 113.426 20.3712C112.93 20.5066 112.225 19.9326 110.816 18.7845C109.891 18.0306 109.429 17.6536 108.897 17.5688C108.689 17.5355 108.476 17.5355 108.267 17.5688C107.736 17.6536 107.273 18.0306 106.348 18.7845C104.939 19.9326 104.234 20.5066 103.738 20.3712C103.553 20.3206 103.386 20.2177 103.258 20.0747C102.914 19.692 103.111 18.8048 103.504 17.0305L103.571 16.73C103.785 15.7645 103.892 15.2818 103.78 14.8271C103.759 14.7423 103.733 14.659 103.701 14.5776C103.531 14.1415 103.165 13.8087 102.433 13.1432L101.951 12.7044C100.506 11.3897 99.7836 10.7324 99.9918 10.1134C100.2 9.49442 101.173 9.40729 103.119 9.23302L103.334 9.21377C104.523 9.1073 105.117 9.05406 105.57 8.71737C106.023 8.38068 106.245 7.82675 106.689 6.71888L106.726 6.62756Z" fill="#E2A03F" stroke="#E2A03F"/>
</svg>
