<svg width="13" height="12" viewBox="0 0 13 12" fill="none" xmlns="http://www.w3.org/2000/svg">
<path d="M6.53284 9.4592L3.76618 11.1259C3.64395 11.2036 3.51618 11.237 3.38284 11.2259C3.24951 11.2148 3.13284 11.1703 3.03284 11.0925C2.93284 11.0148 2.85506 10.9174 2.79951 10.8005C2.74395 10.6836 2.73284 10.5532 2.76618 10.4092L3.49951 7.2592L1.04951 5.14253C0.938398 5.04253 0.869065 4.92853 0.841509 4.80053C0.813954 4.67253 0.822176 4.54764 0.866176 4.42587C0.91062 4.30364 0.977287 4.20364 1.06618 4.12587C1.15506 4.04809 1.27729 3.99809 1.43284 3.97587L4.66618 3.69253L5.91618 0.725867C5.97173 0.592534 6.05795 0.492533 6.17484 0.425867C6.29173 0.3592 6.41107 0.325867 6.53284 0.325867C6.65507 0.325867 6.7744 0.3592 6.89084 0.425867C7.00729 0.492533 7.09351 0.592534 7.14951 0.725867L8.39951 3.69253L11.6328 3.97587C11.7884 3.99809 11.9106 4.04809 11.9995 4.12587C12.0884 4.20364 12.1551 4.30364 12.1995 4.42587C12.244 4.54809 12.2524 4.6732 12.2248 4.8012C12.1973 4.9292 12.1277 5.04298 12.0162 5.14253L9.56618 7.2592L10.2995 10.4092C10.3328 10.5536 10.3217 10.6843 10.2662 10.8012C10.2106 10.9181 10.1328 11.0152 10.0328 11.0925C9.93284 11.1703 9.81618 11.2148 9.68284 11.2259C9.54951 11.237 9.42173 11.2036 9.29951 11.1259L6.53284 9.4592Z" fill="#FBB400"/>
</svg>
