<svg width="58" height="41" viewBox="0 0 58 41" fill="none" xmlns="http://www.w3.org/2000/svg">
<rect y="0.959473" width="58" height="40" rx="8" fill="#E2A03F"/>
<path d="M23.72 13.6395V15.0795H19.06L18.82 19.4995C19.4333 19.4061 19.92 19.3595 20.28 19.3595C21.76 19.3595 22.9 19.8128 23.7 20.7195C24.3933 21.5061 24.74 22.5528 24.74 23.8595C24.74 25.3261 24.2267 26.4328 23.2 27.1795C22.3867 27.7795 21.32 28.0795 20 28.0795C19.2 28.0795 18.4 27.9595 17.6 27.7195L16.96 26.9395V26.3195C17.88 26.5061 18.6867 26.5995 19.38 26.5995C20.62 26.5995 21.5267 26.3995 22.1 25.9995C22.74 25.5595 23.06 24.8328 23.06 23.8195C23.06 21.7928 21.8667 20.7795 19.48 20.7795C18.92 20.7795 18.1067 20.8395 17.04 20.9595L17.44 13.6395H23.72ZM32.2727 14.4995L27.2727 27.9595H25.6527L30.6727 14.4995H32.2727ZM40.1848 13.6395V15.0795H35.5248L35.2848 19.4995C35.8982 19.4061 36.3848 19.3595 36.7448 19.3595C38.2248 19.3595 39.3648 19.8128 40.1648 20.7195C40.8582 21.5061 41.2048 22.5528 41.2048 23.8595C41.2048 25.3261 40.6915 26.4328 39.6648 27.1795C38.8515 27.7795 37.7848 28.0795 36.4648 28.0795C35.6648 28.0795 34.8648 27.9595 34.0648 27.7195L33.4248 26.9395V26.3195C34.3448 26.5061 35.1515 26.5995 35.8448 26.5995C37.0848 26.5995 37.9915 26.3995 38.5648 25.9995C39.2048 25.5595 39.5248 24.8328 39.5248 23.8195C39.5248 21.7928 38.3315 20.7795 35.9448 20.7795C35.3848 20.7795 34.5715 20.8395 33.5048 20.9595L33.9048 13.6395H40.1848Z" fill="white"/>
</svg>
